<svg xmlns="http://www.w3.org/2000/svg" xmlns:xlink="http://www.w3.org/1999/xlink" xmlns:lucid="lucid" width="552" height="208"><g transform="translate(-225.33333333329452 -80)" lucid:page-tab-id="0_0"><path d="M500 120h22.67v26H500z" fill="none"/><use xlink:href="#a" transform="matrix(1,0,0,1,500,120) translate(3.7222222222222214 25.511111111111113)"/><path d="M420 180h22.67v26H420z" fill="none"/><use xlink:href="#b" transform="matrix(1,0,0,1,420,180) translate(3.7222222222222214 25.511111111111113)"/><path d="M380 240h22.67v26H380z" fill="none"/><use xlink:href="#c" transform="matrix(1,0,0,1,380,240) translate(3.7222222222222214 25.511111111111113)"/><path d="M460 240h22.67v26H460z" fill="none"/><use xlink:href="#d" transform="matrix(1,0,0,1,460,240) translate(3.7222222222222214 25.511111111111113)"/><path d="M580 180h22.67v26H580z" fill="none"/><use xlink:href="#e" transform="matrix(1,0,0,1,580,180) translate(3.7222222222222214 25.511111111111113)"/><path d="M540 240h22.67v26H540z" fill="none"/><use xlink:href="#f" transform="matrix(1,0,0,1,540,240) translate(3.7222222222222214 25.511111111111113)"/><path d="M620 240h22.67v26H620z" fill="none"/><use xlink:href="#g" transform="matrix(1,0,0,1,620,240) translate(3.7222222222222214 25.511111111111113)"/><path d="M500 145.33l-44.15 33.9" stroke="#0c7cba" fill="none"/><path d="M500 145.33l-.3-.4.3-.23zM458.1 183.34l-14.15 5 8.5-12.35z" fill="#0c7cba"/><path d="M458.9 183.58l-16.23 5.75 9.75-14.2zm-13.67 3.78l12.04-4.26-4.8-6.26z" fill="#0c7cba"/><path d="M522.67 141.33l44.6 37.34" stroke="#0c7cba" fill="none"/><path d="M523 140.95l-.33.38v-.65zM578.76 188.3l-13.9-5.6 5.94-7.12z" fill="#0c7cba"/><path d="M580 189.33l-15.98-6.43 6.83-8.17zm-14.33-6.85l11.85 4.78-6.78-10.83z" fill="#0c7cba"/><path d="M580 198.67l-16.65 27.16" stroke="#0c7cba" fill="none"/><path d="M580 198.67l-.43-.26.43-.7zM566.92 228.88l-11.4 9.74 3.5-14.58z" fill="#0c7cba"/><path d="M567.77 228.8l-13.1 11.2 4.02-16.75zm-11.4 8.44l9.7-8.3-6.73-4.12z" fill="#0c7cba"/><path d="M602.67 201.33l12.36 23.9" stroke="#0c7cba" fill="none"/><path d="M603.1 201.1l-.43.23v-1.08zM621.92 238.56l-10.67-10.54 8.24-4.26z" fill="#0c7cba"/><path d="M622.67 240l-12.26-12.1 9.47-4.9zm-10.58-11.85l9.08 8.98-2.08-12.6z" fill="#0c7cba"/><path d="M442.67 202.67l18.03 24.04" stroke="#0c7cba" fill="none"/><path d="M443.07 202.37l-.4.3v-.84zM469.7 238.7l-12.27-8.63 7.4-5.56z" fill="#0c7cba"/><path d="M470.67 240l-14.1-9.9 8.53-6.4zm-12.4-9.94l10.46 7.35-4.14-12.08z" fill="#0c7cba"/><path d="M420 202.67l-16 23.58" stroke="#0c7cba" fill="none"/><path d="M420 202.67l-.4-.28.4-.62zM407.42 229.46l-11.84 9.2 4.17-14.4z" fill="#0c7cba"/><path d="M408.27 229.43L394.67 240l4.8-16.55zm-11.8 7.9l10.1-7.84-6.53-4.45z" fill="#0c7cba"/><path d="M245.33 200h157.34v40H245.33z" stroke="#000" stroke-opacity="0" stroke-width="2" fill="#fff" fill-opacity="0"/><use xlink:href="#h" transform="matrix(1,0,0,1,250.33333333329452,205) translate(22.691358024691347 18.555555555555557)"/><use xlink:href="#i" transform="matrix(1,0,0,1,250.33333333329452,205) translate(115.4320987654321 18.555555555555557)"/><path d="M600 200h157.33v40H600z" stroke="#000" stroke-opacity="0" stroke-width="2" fill="#fff" fill-opacity="0"/><use xlink:href="#h" transform="matrix(1,0,0,1,605,205) translate(22.691358024691347 18.555555555555557)"/><use xlink:href="#j" transform="matrix(1,0,0,1,605,205) translate(115.4320987654321 18.555555555555557)"/><path d="M445.33 100h157.34v40H445.33z" stroke="#000" stroke-opacity="0" stroke-width="2" fill="#fff" fill-opacity="0"/><g><use xlink:href="#k" transform="matrix(1,0,0,1,450.3333333332945,105) translate(22.691358024691347 18.555555555555557)"/><use xlink:href="#l" transform="matrix(1,0,0,1,450.3333333332945,105) translate(115.4320987654321 18.555555555555557)"/></g><defs><path fill="#0c7cba" d="M213-519h81c-12 54-13 119-21 177l159-72 26 61-171 52 126 151-55 43-108-166-112 167-54-44 130-150-173-53 26-65 162 76" id="m"/><use transform="matrix(0.031111111111111114,0,0,0.031111111111111114,0,0)" xlink:href="#m" id="a"/><path fill="#0c7cba" d="M222-523h63v171h171v61H285v187h-63v-187H45v-61h177v-171" id="n"/><use transform="matrix(0.031111111111111114,0,0,0.031111111111111114,0,0)" xlink:href="#n" id="b"/><path fill="#0c7cba" d="M313-624h59v390h80v62h-80V0h-73v-173H48v-51zm-13 111L117-234h183v-279" id="o"/><use transform="matrix(0.031111111111111114,0,0,0.031111111111111114,0,0)" xlink:href="#o" id="c"/><path fill="#0c7cba" d="M244-566c-67 0-104 39-115 80l-51-40c37-63 103-101 174-101 102 0 181 78 181 175 0 90-64 153-110 196-45 42-117 104-169 195h261c11 1 12-12 24-9V0H73v-44c52-104 110-168 181-232 45-41 110-95 110-171 0-67-54-119-120-119" id="p"/><use transform="matrix(0.031111111111111114,0,0,0.031111111111111114,0,0)" xlink:href="#p" id="d"/><path fill="#0c7cba" d="M71-348h360v67H71v-67" id="q"/><use transform="matrix(0.031111111111111114,0,0,0.031111111111111114,0,0)" xlink:href="#q" id="e"/><path fill="#0c7cba" d="M411-467c0 61-37 114-93 135 65 24 107 87 107 161 0 97-73 182-192 182-62 0-122-25-164-71l53-63c9 9 5 18 13 28 4 5 39 42 97 42 73 0 126-59 126-127 1-84-81-129-178-116v-56c59 0 87-11 98-16 103-41 81-197-42-195-39 0-78 17-107 48l-39-43c39-43 93-67 149-67 99 0 172 73 172 158" id="r"/><use transform="matrix(0.031111111111111114,0,0,0.031111111111111114,0,0)" xlink:href="#r" id="f"/><path fill="#0c7cba" d="M298-624v570h112V1H116v-55h115v-483l-123 36-17-39 160-84h47" id="s"/><use transform="matrix(0.031111111111111114,0,0,0.031111111111111114,0,0)" xlink:href="#s" id="g"/><path fill="#19967d" d="M30 0v-248h187v28H63v79h144v27H63v87h162V0H30" id="t"/><path fill="#19967d" d="M141 0L90-78 38 0H4l68-98-65-92h35l48 74 47-74h35l-64 92 68 98h-35" id="u"/><path fill="#19967d" d="M115-194c55 1 70 41 70 98S169 2 115 4C84 4 66-9 55-30l1 105H24l-1-265h31l2 30c10-21 28-34 59-34zm-8 174c40 0 45-34 45-75s-6-73-45-74c-42 0-51 32-51 76 0 43 10 73 51 73" id="v"/><path fill="#19967d" d="M114-163C36-179 61-72 57 0H25l-1-190h30c1 12-1 29 2 39 6-27 23-49 58-41v29" id="w"/><path fill="#19967d" d="M100-194c63 0 86 42 84 106H49c0 40 14 67 53 68 26 1 43-12 49-29l28 8c-11 28-37 45-77 45C44 4 14-33 15-96c1-61 26-98 85-98zm52 81c6-60-76-77-97-28-3 7-6 17-6 28h103" id="x"/><path fill="#19967d" d="M135-143c-3-34-86-38-87 0 15 53 115 12 119 90S17 21 10-45l28-5c4 36 97 45 98 0-10-56-113-15-118-90-4-57 82-63 122-42 12 7 21 19 24 35" id="y"/><path fill="#19967d" d="M24-231v-30h32v30H24zM24 0v-190h32V0H24" id="z"/><path fill="#19967d" d="M100-194c62-1 85 37 85 99 1 63-27 99-86 99S16-35 15-95c0-66 28-99 85-99zM99-20c44 1 53-31 53-75 0-43-8-75-51-75s-53 32-53 75 10 74 51 75" id="A"/><path fill="#19967d" d="M117-194c89-4 53 116 60 194h-32v-121c0-31-8-49-39-48C34-167 62-67 57 0H25l-1-190h30c1 10-1 24 2 32 11-22 29-35 61-36" id="B"/><g id="h"><use transform="matrix(0.04938271604938272,0,0,0.04938271604938272,0,0)" xlink:href="#t"/><use transform="matrix(0.04938271604938272,0,0,0.04938271604938272,11.851851851851853,0)" xlink:href="#u"/><use transform="matrix(0.04938271604938272,0,0,0.04938271604938272,20.74074074074074,0)" xlink:href="#v"/><use transform="matrix(0.04938271604938272,0,0,0.04938271604938272,30.617283950617285,0)" xlink:href="#w"/><use transform="matrix(0.04938271604938272,0,0,0.04938271604938272,36.49382716049383,0)" xlink:href="#x"/><use transform="matrix(0.04938271604938272,0,0,0.04938271604938272,46.370370370370374,0)" xlink:href="#y"/><use transform="matrix(0.04938271604938272,0,0,0.04938271604938272,55.25925925925927,0)" xlink:href="#y"/><use transform="matrix(0.04938271604938272,0,0,0.04938271604938272,64.14814814814815,0)" xlink:href="#z"/><use transform="matrix(0.04938271604938272,0,0,0.04938271604938272,68.0493827160494,0)" xlink:href="#A"/><use transform="matrix(0.04938271604938272,0,0,0.04938271604938272,77.92592592592594,0)" xlink:href="#B"/></g><path fill="#19967d" d="M27 0v-27h64v-190l-56 39v-29l58-41h29v221h61V0H27" id="C"/><use transform="matrix(0.04938271604938272,0,0,0.04938271604938272,0,0)" xlink:href="#C" id="i"/><path fill="#19967d" d="M101-251c82-7 93 87 43 132L82-64C71-53 59-42 53-27h129V0H18c2-99 128-94 128-182 0-28-16-43-45-43s-46 15-49 41l-32-3c6-41 34-60 81-64" id="D"/><use transform="matrix(0.04938271604938272,0,0,0.04938271604938272,0,0)" xlink:href="#D" id="j"/><path fill="#834187" d="M30 0v-248h187v28H63v79h144v27H63v87h162V0H30" id="E"/><path fill="#834187" d="M141 0L90-78 38 0H4l68-98-65-92h35l48 74 47-74h35l-64 92 68 98h-35" id="F"/><path fill="#834187" d="M115-194c55 1 70 41 70 98S169 2 115 4C84 4 66-9 55-30l1 105H24l-1-265h31l2 30c10-21 28-34 59-34zm-8 174c40 0 45-34 45-75s-6-73-45-74c-42 0-51 32-51 76 0 43 10 73 51 73" id="G"/><path fill="#834187" d="M114-163C36-179 61-72 57 0H25l-1-190h30c1 12-1 29 2 39 6-27 23-49 58-41v29" id="H"/><path fill="#834187" d="M100-194c63 0 86 42 84 106H49c0 40 14 67 53 68 26 1 43-12 49-29l28 8c-11 28-37 45-77 45C44 4 14-33 15-96c1-61 26-98 85-98zm52 81c6-60-76-77-97-28-3 7-6 17-6 28h103" id="I"/><path fill="#834187" d="M135-143c-3-34-86-38-87 0 15 53 115 12 119 90S17 21 10-45l28-5c4 36 97 45 98 0-10-56-113-15-118-90-4-57 82-63 122-42 12 7 21 19 24 35" id="J"/><path fill="#834187" d="M24-231v-30h32v30H24zM24 0v-190h32V0H24" id="K"/><path fill="#834187" d="M100-194c62-1 85 37 85 99 1 63-27 99-86 99S16-35 15-95c0-66 28-99 85-99zM99-20c44 1 53-31 53-75 0-43-8-75-51-75s-53 32-53 75 10 74 51 75" id="L"/><path fill="#834187" d="M117-194c89-4 53 116 60 194h-32v-121c0-31-8-49-39-48C34-167 62-67 57 0H25l-1-190h30c1 10-1 24 2 32 11-22 29-35 61-36" id="M"/><g id="k"><use transform="matrix(0.04938271604938272,0,0,0.04938271604938272,0,0)" xlink:href="#E"/><use transform="matrix(0.04938271604938272,0,0,0.04938271604938272,11.851851851851853,0)" xlink:href="#F"/><use transform="matrix(0.04938271604938272,0,0,0.04938271604938272,20.74074074074074,0)" xlink:href="#G"/><use transform="matrix(0.04938271604938272,0,0,0.04938271604938272,30.617283950617285,0)" xlink:href="#H"/><use transform="matrix(0.04938271604938272,0,0,0.04938271604938272,36.49382716049383,0)" xlink:href="#I"/><use transform="matrix(0.04938271604938272,0,0,0.04938271604938272,46.370370370370374,0)" xlink:href="#J"/><use transform="matrix(0.04938271604938272,0,0,0.04938271604938272,55.25925925925927,0)" xlink:href="#J"/><use transform="matrix(0.04938271604938272,0,0,0.04938271604938272,64.14814814814815,0)" xlink:href="#K"/><use transform="matrix(0.04938271604938272,0,0,0.04938271604938272,68.0493827160494,0)" xlink:href="#L"/><use transform="matrix(0.04938271604938272,0,0,0.04938271604938272,77.92592592592594,0)" xlink:href="#M"/></g><path fill="#834187" d="M126-127c33 6 58 20 58 59 0 88-139 92-164 29-3-8-5-16-6-25l32-3c6 27 21 44 54 44 32 0 52-15 52-46 0-38-36-46-79-43v-28c39 1 72-4 72-42 0-27-17-43-46-43-28 0-47 15-49 41l-32-3c6-42 35-63 81-64 48-1 79 21 79 65 0 36-21 52-52 59" id="N"/><use transform="matrix(0.04938271604938272,0,0,0.04938271604938272,0,0)" xlink:href="#N" id="l"/></defs></g></svg>