<svg xmlns="http://www.w3.org/2000/svg" xmlns:xlink="http://www.w3.org/1999/xlink" xmlns:lucid="lucid" width="791.33" height="260"><g transform="translate(-428.66666666668607 -100)" lucid:page-tab-id="-kpaoiD7sZsf"><path d="M448.67 120h100v40h-100z" fill="none"/><use xlink:href="#a" transform="matrix(1,0,0,1,448.66666666668607,120) translate(18.888888888888893 24.888888888888886)"/><path d="M448.67 200h120v40h-120z" fill="none"/><use xlink:href="#b" transform="matrix(1,0,0,1,448.66666666668607,200) translate(2.2222222222222285 24.888888888888886)"/><use xlink:href="#c" transform="matrix(1,0,0,1,448.66666666668607,200) translate(64.44444444444444 24.888888888888886)"/><path d="M500 160v23.38" stroke="#0c7cba" fill="none"/><path fill="#0c7cba"/><path d="M500 198.38l-4.64-14.26h9.28z" stroke="#0c7cba" fill="#0c7cba"/><path d="M728.67 120h100v40h-100z" fill="none"/><use xlink:href="#a" transform="matrix(1,0,0,1,728.6666666666861,120) translate(18.888888888888893 24.888888888888886)"/><path d="M680 200h80v40h-80z" fill="none"/><use xlink:href="#d" transform="matrix(1,0,0,1,680,200) translate(8.888888888888893 24.888888888888886)"/><path d="M780 160l-35.83 29.45" stroke="#0c7cba" fill="none"/><path d="M780.32 160.4l-.32-.4h.8zM746.55 193.5l-13.97 5.47 8.08-12.64z" fill="#0c7cba"/><path d="M747.37 193.7l-16.04 6.3 9.28-14.52zm-13.54 4.25l11.9-4.67-5.02-6.1z" fill="#0c7cba"/><path d="M820 200h80v40h-80z" fill="none"/><use xlink:href="#e" transform="matrix(1,0,0,1,820,200) translate(8.888888888888893 24.888888888888886)"/><path d="M1000 120h100v40h-100z" fill="none"/><use xlink:href="#a" transform="matrix(1,0,0,1,1000,120) translate(18.888888888888893 24.888888888888886)"/><path d="M960 240h80v40h-80z" fill="none"/><use xlink:href="#d" transform="matrix(1,0,0,1,960,240) translate(8.888888888888893 24.888888888888886)"/><path d="M1051.33 160v23.38" stroke="#0c7cba" fill="none"/><path fill="#0c7cba"/><path d="M1051.33 198.38l-4.63-14.26h9.27z" stroke="#0c7cba" fill="#0c7cba"/><path d="M1120 300h80v40h-80z" fill="none"/><use xlink:href="#e" transform="matrix(1,0,0,1,1120,300) translate(8.888888888888893 24.888888888888886)"/><path d="M790.67 160l49.9 31.2" stroke="#0c7cba" fill="none"/><path d="M790.4 160.42l-.68-.42h.95zM853.3 199.14l-14.56-3.63 4.9-7.85z" fill="#0c7cba"/><path d="M854.67 200l-16.72-4.17 5.64-9.03zm-15.14-4.8l12.4 3.08-8.22-9.78z" fill="#0c7cba"/><path d="M1040 200h20v20h-20z" fill="none"/><use xlink:href="#f" transform="matrix(1,0,0,1,1040,200) translate(2.2222222222222214 25.511111111111113)"/><path d="M1041.33 220l-20.27 11.7" stroke="#0c7cba" fill="none"/><path d="M1041.58 220.43l-.25-.43h1zM1022.74 236.08l-14.67 3.1 10.04-11.13z" fill="#0c7cba"/><path d="M1023.52 236.42l-16.85 3.58 11.53-12.8zm-14.05 1.96l12.5-2.65-3.95-6.84z" fill="#0c7cba"/><path d="M1040 300h50v40h-50z" fill="none"/><use xlink:href="#g" transform="matrix(1,0,0,1,1040,300) translate(11.666666666666666 24.888888888888886)"/><use xlink:href="#h" transform="matrix(1,0,0,1,1040,300) translate(29.444444444444443 24.888888888888886)"/><path d="M1100 240h20v20h-20z" fill="none"/><use xlink:href="#f" transform="matrix(1,0,0,1,1100,240) translate(2.2222222222222214 25.511111111111113)"/><path d="M1101.33 260l-21.75 27.05" stroke="#0c7cba" fill="none"/><path d="M1101.72 260.3l-.4-.3h.65zM1082.73 290.53l-12.55 8.2 5.33-14z" fill="#0c7cba"/><path d="M1083.58 290.57l-14.4 9.43 6.1-16.1zm-12.4 6.9l10.7-6.98-6.15-4.96z" fill="#0c7cba"/><path d="M1060 220l25.54 14.47" stroke="#0c7cba" fill="none"/><path d="M1060.25 219.56l-.5.88-.76-.44h1v-.57zM1098.6 241.87l-14.7-3 4.57-8.07z" fill="#0c7cba"/><path d="M1100 242.67l-16.88-3.45 5.25-9.26zm-15.33-4.15l12.5 2.55-8.6-9.42z" fill="#0c7cba"/><path d="M1120 260l32.87 29" stroke="#0c7cba" fill="none"/><path d="M1120.33 259.63l-.66.74-.43-.37h.76v-.67zM1164.12 298.93l-13.76-5.96 6.13-6.95z" fill="#0c7cba"/><path d="M1165.33 300l-15.8-6.85 7.04-7.98zm-14.14-7.22l11.7 5.08-6.5-11z" fill="#0c7cba"/><defs><path fill="#0c7cba" d="M60-457h73v70c31-50 85-80 144-80 90 0 186 72 186 233 0 168-99 246-192 246-55 0-107-27-137-72v227H60v-624zm191 51c-78 0-118 60-118 157 0 66 0 103 13 134 18 42 61 63 104 63s138-23 138-167c0-166-97-187-137-187" id="i"/><path fill="#0c7cba" d="M425-349c-21-29-38-57-93-57-32 0-86 11-128 77-31 49-32 79-32 107V1H99v-458h75l-2 88c45-108 209-131 286-49" id="j"/><path fill="#0c7cba" d="M106-457h183v399h107V0H100v-58h117v-341H106v-58zm149-199c29 0 51 23 51 51s-22 52-51 52-52-24-52-52 23-51 52-51" id="k"/><path fill="#0c7cba" d="M274-405c-78 10-132 62-132 142V0H68v-457h74v81c34-51 89-92 151-92 88 0 139 91 139 191V0h-71v-275c9-55-27-138-87-130" id="l"/><path fill="#0c7cba" d="M298 9c-94 0-131-85-131-173 0-78 4-156 10-234H70l1-59h109l8-122 79-13c4 10-4 16-6 27-5 25-12 108-12 108h150v59H249c-9 66-12 213-6 267 6 55 43 73 77 73 28 0 63-12 102-41l22 57C405-14 352 9 298 9" id="m"/><path fill="#0c7cba" d="M403-604c-124 64-194 197-195 342 0 155 80 303 217 382l-32 53C235 90 139-76 139-258c0-183 98-340 253-408l30 61c-7 4-12 1-19 1" id="n"/><path fill="#0c7cba" d="M78-603l19-62c162 75 267 236 267 414C364-71 257 95 91 174l-19-60C207 42 293-98 293-248c0-148-83-285-215-355" id="o"/><g id="a"><use transform="matrix(0.017777777777777778,0,0,0.017777777777777778,0,0)" xlink:href="#i"/><use transform="matrix(0.017777777777777778,0,0,0.017777777777777778,8.88888888888889,0)" xlink:href="#j"/><use transform="matrix(0.017777777777777778,0,0,0.017777777777777778,17.77777777777778,0)" xlink:href="#k"/><use transform="matrix(0.017777777777777778,0,0,0.017777777777777778,26.666666666666668,0)" xlink:href="#l"/><use transform="matrix(0.017777777777777778,0,0,0.017777777777777778,35.55555555555556,0)" xlink:href="#m"/><use transform="matrix(0.017777777777777778,0,0,0.017777777777777778,44.44444444444444,0)" xlink:href="#n"/><use transform="matrix(0.017777777777777778,0,0,0.017777777777777778,53.33333333333333,0)" xlink:href="#o"/></g><path fill="#0c7cba" d="M319-605c6 27-41 146-58 193l-55-13c11-40 30-75 32-123 0-22-7-41-7-63 0-40 24-55 43-55 20 0 45 16 45 61" id="p"/><path fill="#0c7cba" d="M54-623h78c4 10-5 12-5 24v243h244v-267h76c5 10-6 10-6 22V1h-71v-298H127V0H54v-623" id="q"/><path fill="#0c7cba" d="M259-468c75 0 160 39 181 162 4 27 6 57 3 88H118c5 137 95 170 156 170 45 0 88-18 118-51l40 39c-39 47-99 70-164 70C144 10 49-71 49-223c0-167 101-245 210-245zM121-274h251c9-74-44-139-118-139-49 0-119 31-133 139" id="r"/><path fill="#0c7cba" d="M85-665h202v607h134V0H79v-58h135v-549H85v-58" id="s"/><path fill="#0c7cba" d="M460-226c0 151-97 238-205 238C140 12 40-86 40-225c0-141 101-242 217-242 104 0 203 83 203 241zm-72 3c1-245-271-238-272-8-5 228 272 366 272 8" id="t"/><g id="b"><use transform="matrix(0.017777777777777778,0,0,0.017777777777777778,0,0)" xlink:href="#p"/><use transform="matrix(0.017777777777777778,0,0,0.017777777777777778,8.88888888888889,0)" xlink:href="#q"/><use transform="matrix(0.017777777777777778,0,0,0.017777777777777778,17.77777777777778,0)" xlink:href="#r"/><use transform="matrix(0.017777777777777778,0,0,0.017777777777777778,26.666666666666668,0)" xlink:href="#s"/><use transform="matrix(0.017777777777777778,0,0,0.017777777777777778,35.55555555555556,0)" xlink:href="#s"/><use transform="matrix(0.017777777777777778,0,0,0.017777777777777778,44.44444444444444,0)" xlink:href="#t"/></g><path fill="#0c7cba" d="M17-623h65l67 421 100-375h22l101 377 57-423h59L389 4h-27L255-407 146 4h-29" id="u"/><path fill="#0c7cba" d="M371-390v-275h77c0 12-10 17-10 28l1 595c0 14 1 28 5 42h-72c-7-22-3-46-4-73-29 51-83 83-141 83-88 0-182-73-182-242 0-175 105-237 192-237 63 0 112 32 134 79zM243-53c73 0 122-71 122-170 0-51-1-77-7-98-18-68-78-89-118-89-53 0-125 36-125 166 0 150 76 191 128 191" id="v"/><g id="c"><use transform="matrix(0.017777777777777778,0,0,0.017777777777777778,0,0)" xlink:href="#u"/><use transform="matrix(0.017777777777777778,0,0,0.017777777777777778,8.88888888888889,0)" xlink:href="#t"/><use transform="matrix(0.017777777777777778,0,0,0.017777777777777778,17.77777777777778,0)" xlink:href="#j"/><use transform="matrix(0.017777777777777778,0,0,0.017777777777777778,26.666666666666668,0)" xlink:href="#s"/><use transform="matrix(0.017777777777777778,0,0,0.017777777777777778,35.55555555555556,0)" xlink:href="#v"/><use transform="matrix(0.017777777777777778,0,0,0.017777777777777778,44.44444444444444,0)" xlink:href="#p"/></g><g id="d"><use transform="matrix(0.017777777777777778,0,0,0.017777777777777778,0,0)" xlink:href="#p"/><use transform="matrix(0.017777777777777778,0,0,0.017777777777777778,8.88888888888889,0)" xlink:href="#q"/><use transform="matrix(0.017777777777777778,0,0,0.017777777777777778,17.77777777777778,0)" xlink:href="#r"/><use transform="matrix(0.017777777777777778,0,0,0.017777777777777778,26.666666666666668,0)" xlink:href="#s"/><use transform="matrix(0.017777777777777778,0,0,0.017777777777777778,35.55555555555556,0)" xlink:href="#s"/><use transform="matrix(0.017777777777777778,0,0,0.017777777777777778,44.44444444444444,0)" xlink:href="#t"/><use transform="matrix(0.017777777777777778,0,0,0.017777777777777778,53.33333333333333,0)" xlink:href="#p"/></g><g id="e"><use transform="matrix(0.017777777777777778,0,0,0.017777777777777778,0,0)" xlink:href="#p"/><use transform="matrix(0.017777777777777778,0,0,0.017777777777777778,8.88888888888889,0)" xlink:href="#u"/><use transform="matrix(0.017777777777777778,0,0,0.017777777777777778,17.77777777777778,0)" xlink:href="#t"/><use transform="matrix(0.017777777777777778,0,0,0.017777777777777778,26.666666666666668,0)" xlink:href="#j"/><use transform="matrix(0.017777777777777778,0,0,0.017777777777777778,35.55555555555556,0)" xlink:href="#s"/><use transform="matrix(0.017777777777777778,0,0,0.017777777777777778,44.44444444444444,0)" xlink:href="#v"/><use transform="matrix(0.017777777777777778,0,0,0.017777777777777778,53.33333333333333,0)" xlink:href="#p"/></g><path fill="#0c7cba" d="M222-523h63v171h171v61H285v187h-63v-187H45v-61h177v-171" id="w"/><use transform="matrix(0.031111111111111114,0,0,0.031111111111111114,0,0)" xlink:href="#w" id="f"/><use transform="matrix(0.017777777777777778,0,0,0.017777777777777778,0,0)" xlink:href="#p" id="g"/><use transform="matrix(0.017777777777777778,0,0,0.017777777777777778,0,0)" xlink:href="#p" id="h"/></defs></g></svg>