<svg xmlns="http://www.w3.org/2000/svg" xmlns:xlink="http://www.w3.org/1999/xlink" xmlns:lucid="lucid" width="1260" height="460"><g transform="translate(-200 -280)" lucid:page-tab-id="CQOzOgtthTz0"><path d="M460 300h660v60H460z" stroke="#000" stroke-opacity="0" stroke-width="2" fill="#fff" fill-opacity="0"/><use xlink:href="#a" transform="matrix(1,0,0,1,465,305) translate(31.61892361111103 32.693142361111114)"/><use xlink:href="#b" transform="matrix(1,0,0,1,465,305) translate(151.63845486111106 32.693142361111114)"/><use xlink:href="#c" transform="matrix(1,0,0,1,465,305) translate(284.9934895833333 32.693142361111114)"/><use xlink:href="#d" transform="matrix(1,0,0,1,465,305) translate(418.3485243055556 32.693142361111114)"/><use xlink:href="#e" transform="matrix(1,0,0,1,465,305) translate(525.0325520833335 32.693142361111114)"/><path d="M480 600h80M480 560v40M560 560v40M620 600h80M620 560v40M700 560v40M760 600h80M760 560v40M840 560v40M900 600h80M900 560v40M980 560v40M1040 600h80M1040 560v40M1120 560v40" stroke="#834187" stroke-width="2" fill="none"/><path d="M560 577.33l60 1.34" fill="none"/><path d="M560 577.33l10 .23m10 .22l20 .44m10 .22l10 .23" stroke="#834187" stroke-width="2" fill="none"/><path d="M700 577.33l60 1.34" fill="none"/><path d="M700 577.33l10 .23m10 .22l20 .44m10 .22l10 .23" stroke="#834187" stroke-width="2" fill="none"/><path d="M840 577.33l60 1.34" fill="none"/><path d="M840 577.33l10 .23m10 .22l20 .44m10 .22l10 .23" stroke="#834187" stroke-width="2" fill="none"/><path d="M980 577.33l60 1.34" fill="none"/><path d="M980 577.33l10 .23m10 .22l20 .44m10 .22l10 .23" stroke="#834187" stroke-width="2" fill="none"/><path d="M460 500h140v40H460z" stroke="#000" stroke-opacity="0" stroke-width="2" fill="#fff" fill-opacity="0"/><use xlink:href="#f" transform="matrix(1,0,0,1,465,505) translate(18.325737847222214 22.69314236111111)"/><path d="M600 500h140v40H600z" stroke="#000" stroke-opacity="0" stroke-width="2" fill="#fff" fill-opacity="0"/><use xlink:href="#g" transform="matrix(1,0,0,1,605,505) translate(11.6579861111111 22.69314236111111)"/><path d="M740 500h140v40H740z" stroke="#000" stroke-opacity="0" stroke-width="2" fill="#fff" fill-opacity="0"/><use xlink:href="#h" transform="matrix(1,0,0,1,745,505) translate(11.6579861111111 22.69314236111111)"/><path d="M870 500h140v40H870z" stroke="#000" stroke-opacity="0" stroke-width="2" fill="#fff" fill-opacity="0"/><use xlink:href="#i" transform="matrix(1,0,0,1,875,505) translate(24.99348958333333 22.69314236111111)"/><path d="M1006 500h140v40h-140z" stroke="#000" stroke-opacity="0" stroke-width="2" fill="#fff" fill-opacity="0"/><use xlink:href="#j" transform="matrix(1,0,0,1,1011,505) translate(18.325737847222214 22.69314236111111)"/><path d="M492 620h60v40h-60z" stroke="#000" stroke-opacity="0" stroke-width="2" fill="#fff" fill-opacity="0"/><use xlink:href="#k" transform="matrix(1,0,0,1,497,625) translate(18.33224826388889 22.69314236111111)"/><path d="M640 620h60v40h-60z" stroke="#000" stroke-opacity="0" stroke-width="2" fill="#fff" fill-opacity="0"/><use xlink:href="#l" transform="matrix(1,0,0,1,645,625) translate(18.33224826388889 21.046918402777777)"/><path d="M780 620h60v40h-60z" stroke="#000" stroke-opacity="0" stroke-width="2" fill="#fff" fill-opacity="0"/><use xlink:href="#m" transform="matrix(1,0,0,1,785,625) translate(18.33224826388889 22.69314236111111)"/><path d="M910 620h60v40h-60z" stroke="#000" stroke-opacity="0" stroke-width="2" fill="#fff" fill-opacity="0"/><use xlink:href="#n" transform="matrix(1,0,0,1,915,625) translate(18.33224826388889 22.69314236111111)"/><path d="M1046 620h60v40h-60z" stroke="#000" stroke-opacity="0" stroke-width="2" fill="#fff" fill-opacity="0"/><use xlink:href="#o" transform="matrix(1,0,0,1,1051,625) translate(18.33224826388889 22.69314236111111)"/><path d="M492 680h60v40h-60z" stroke="#000" stroke-opacity="0" stroke-width="2" fill="#fff" fill-opacity="0"/><use xlink:href="#p" transform="matrix(1,0,0,1,497,685) translate(11.664496527777779 22.69314236111111)"/><path d="M640 680h60v40h-60z" stroke="#000" stroke-opacity="0" stroke-width="2" fill="#fff" fill-opacity="0"/><use xlink:href="#q" transform="matrix(1,0,0,1,645,685) translate(11.664496527777779 22.69314236111111)"/><path d="M780 680h60v40h-60z" stroke="#000" stroke-opacity="0" stroke-width="2" fill="#fff" fill-opacity="0"/><use xlink:href="#r" transform="matrix(1,0,0,1,785,685) translate(11.664496527777779 22.69314236111111)"/><path d="M910 680h60v40h-60z" stroke="#000" stroke-opacity="0" stroke-width="2" fill="#fff" fill-opacity="0"/><use xlink:href="#s" transform="matrix(1,0,0,1,915,685) translate(11.664496527777779 22.69314236111111)"/><path d="M1046 680h60v40h-60z" stroke="#000" stroke-opacity="0" stroke-width="2" fill="#fff" fill-opacity="0"/><use xlink:href="#t" transform="matrix(1,0,0,1,1051,685) translate(11.664496527777779 22.69314236111111)"/><path d="M240.02 440H1420" stroke="#666" fill="none"/><path d="M320 500h120v40H320z" stroke="#000" stroke-opacity="0" stroke-width="2" fill="#fff" fill-opacity="0"/><use xlink:href="#u" transform="matrix(1,0,0,1,325,505) translate(55.019999999999996 22.409999999999997)"/><path d="M320 560h120v40H320z" stroke="#000" stroke-opacity="0" stroke-width="2" fill="#fff" fill-opacity="0"/><use xlink:href="#v" transform="matrix(1,0,0,1,325,565) translate(63.36 22.409999999999997)"/><path d="M220 620h220v40H220z" stroke="#000" stroke-opacity="0" stroke-width="2" fill="#fff" fill-opacity="0"/><use xlink:href="#w" transform="matrix(1,0,0,1,225,625) translate(67.5 22.409999999999997)"/><use xlink:href="#x" transform="matrix(1,0,0,1,225,625) translate(141.74 22.409999999999997)"/><path d="M220 680h220v40H220z" stroke="#000" stroke-opacity="0" stroke-width="2" fill="#fff" fill-opacity="0"/><use xlink:href="#y" transform="matrix(1,0,0,1,225,685) translate(70.96000000000001 22.409999999999997)"/><use xlink:href="#x" transform="matrix(1,0,0,1,225,685) translate(141.74 22.409999999999997)"/><path d="M1180 300h240v60h-240z" stroke="#000" stroke-opacity="0" stroke-width="2" fill="#fff" fill-opacity="0"/><g><use xlink:href="#z" transform="matrix(1,0,0,1,1185,305) translate(24.173333333333332 25.893333333333334)"/><use xlink:href="#A" transform="matrix(1,0,0,1,1185,305) translate(90.78666666666666 25.893333333333334)"/><use xlink:href="#B" transform="matrix(1,0,0,1,1185,305) translate(154.89333333333332 25.893333333333334)"/><use xlink:href="#C" transform="matrix(1,0,0,1,1185,305) translate(94.26666666666667 57.92)"/></g><path d="M1200 540h240v60h-240z" stroke="#000" stroke-opacity="0" stroke-width="2" fill="#fff" fill-opacity="0"/><g><use xlink:href="#D" transform="matrix(1,0,0,1,1205,545) translate(10.453333333333319 25.893333333333334)"/><use xlink:href="#A" transform="matrix(1,0,0,1,1205,545) translate(63.786666666666655 25.893333333333334)"/><use xlink:href="#E" transform="matrix(1,0,0,1,1205,545) translate(127.89333333333332 25.893333333333334)"/><use xlink:href="#F" transform="matrix(1,0,0,1,1205,545) translate(95.74666666666667 57.92)"/></g><defs><path fill="#c92d39" d="M733-1462l-41 528H537l-41-528h237" id="G"/><path fill="#c92d39" d="M596-1118c288 2 430 92 430 366V0H895l-37-152h-8C752-34 680 17 483 20 272 23 135-98 135-307c0-221 170-337 510-348l203-7c15-197-55-305-244-305-98 0-207 27-328 82l-63-137c131-64 258-96 383-96zm-72 991c194 0 325-116 322-311v-99c-251 15-522-6-522 232 0 119 67 178 200 178" id="H"/><path fill="#c92d39" d="M1092-551c0 322-136 571-430 571-138 0-245-53-322-159h-12c24 220 7 402 12 631H158v-1590h147l27 148h8c73-112 181-168 322-168 294 0 430 246 430 567zM629-967c-241 0-288 156-289 416 0 151 24 259 70 323s120 97 221 97c181 0 272-141 272-422 0-276-91-414-274-414" id="I"/><path fill="#c92d39" d="M532-1413l-268-21v-122h451v1413l352 20V0H188v-123l344-20v-1270" id="J"/><path fill="#c92d39" d="M631-1118c283 0 470 204 465 491v113H322c5 250 120 375 344 375 130 0 253-25 370-76v160C925-5 804 20 672 20c-329 0-539-224-539-561 0-331 182-577 498-577zM326-662h573c0-203-91-305-272-305-183 0-284 102-301 305" id="K"/><path fill="#c92d39" d="M770-262l16 24C748-89 683 87 592 289H440c51-215 88-399 111-551h219" id="L"/><g id="a"><use transform="matrix(0.010850694444444444,0,0,0.010850694444444444,0,0)" xlink:href="#G"/><use transform="matrix(0.010850694444444444,0,0,0.010850694444444444,13.335503472222221,0)" xlink:href="#H"/><use transform="matrix(0.010850694444444444,0,0,0.010850694444444444,26.671006944444443,0)" xlink:href="#I"/><use transform="matrix(0.010850694444444444,0,0,0.010850694444444444,40.006510416666664,0)" xlink:href="#I"/><use transform="matrix(0.010850694444444444,0,0,0.010850694444444444,53.342013888888886,0)" xlink:href="#J"/><use transform="matrix(0.010850694444444444,0,0,0.010850694444444444,66.67751736111111,0)" xlink:href="#K"/><use transform="matrix(0.010850694444444444,0,0,0.010850694444444444,80.01302083333334,0)" xlink:href="#G"/><use transform="matrix(0.010850694444444444,0,0,0.010850694444444444,93.34852430555557,0)" xlink:href="#L"/></g><path fill="#c92d39" d="M1112-551c0 331-186 571-502 571-301 0-495-251-495-571 0-330 184-567 501-567 302 0 496 249 496 567zM614-131c207 0 310-140 310-420 0-277-104-416-312-416-206 0-309 139-309 416 0 280 104 420 311 420" id="M"/><path fill="#c92d39" d="M442-897c93-139 173-221 377-221 79 0 159 15 240 45l-49 166c-82-30-157-45-224-45-221 0-340 134-340 360V0H264v-1098h148l22 201h8" id="N"/><path fill="#c92d39" d="M887 0v-707c0-173-79-260-238-260-205 0-307 133-307 398V0H160v-1098h147l27 148h10c69-112 181-168 336-168 259 0 389 134 389 401V0H887" id="O"/><path fill="#c92d39" d="M188-739c-1-248 156-381 410-379 57 0 107 7 150 20h378v113l-196 27c43 57 65 128 65 213 2 253-212 385-489 346-67 37-100 82-100 133 0 56 54 84 161 84h187c216-2 358 93 358 297 0 251-188 377-565 377-145 0-255-26-331-80S102 283 102 186c0-141 80-231 240-270-64-31-96-83-96-154 0-75 44-139 133-192-109-41-191-166-191-309zm406 221c149 0 223-77 223-230 0-159-75-239-225-239s-225 81-225 242c0 151 76 227 227 227zm346 649c0-146-78-149-248-149H504c-153 0-230 66-230 198 0 116 90 174 271 174 263 0 395-74 395-223" id="P"/><g id="b"><use transform="matrix(0.010850694444444444,0,0,0.010850694444444444,0,0)" xlink:href="#G"/><use transform="matrix(0.010850694444444444,0,0,0.010850694444444444,13.335503472222221,0)" xlink:href="#M"/><use transform="matrix(0.010850694444444444,0,0,0.010850694444444444,26.671006944444443,0)" xlink:href="#N"/><use transform="matrix(0.010850694444444444,0,0,0.010850694444444444,40.006510416666664,0)" xlink:href="#H"/><use transform="matrix(0.010850694444444444,0,0,0.010850694444444444,53.342013888888886,0)" xlink:href="#O"/><use transform="matrix(0.010850694444444444,0,0,0.010850694444444444,66.67751736111111,0)" xlink:href="#P"/><use transform="matrix(0.010850694444444444,0,0,0.010850694444444444,80.01302083333334,0)" xlink:href="#K"/><use transform="matrix(0.010850694444444444,0,0,0.010850694444444444,93.34852430555557,0)" xlink:href="#G"/><use transform="matrix(0.010850694444444444,0,0,0.010850694444444444,106.6840277777778,0)" xlink:href="#L"/></g><path fill="#c92d39" d="M1092-551c0 322-136 571-430 571-138 0-245-53-322-159h-12L291 0H158v-1556h182c-2 221 6 379-8 602h8c71-109 179-164 322-164 294 0 430 246 430 567zM629-967c-241 0-289 146-289 416 0 151 24 259 70 323s120 97 221 97c181 0 272-141 272-422 0-276-91-414-274-414" id="Q"/><g id="c"><use transform="matrix(0.010850694444444444,0,0,0.010850694444444444,0,0)" xlink:href="#G"/><use transform="matrix(0.010850694444444444,0,0,0.010850694444444444,13.335503472222221,0)" xlink:href="#Q"/><use transform="matrix(0.010850694444444444,0,0,0.010850694444444444,26.671006944444443,0)" xlink:href="#H"/><use transform="matrix(0.010850694444444444,0,0,0.010850694444444444,40.006510416666664,0)" xlink:href="#O"/><use transform="matrix(0.010850694444444444,0,0,0.010850694444444444,53.342013888888886,0)" xlink:href="#H"/><use transform="matrix(0.010850694444444444,0,0,0.010850694444444444,66.67751736111111,0)" xlink:href="#O"/><use transform="matrix(0.010850694444444444,0,0,0.010850694444444444,80.01302083333334,0)" xlink:href="#H"/><use transform="matrix(0.010850694444444444,0,0,0.010850694444444444,93.34852430555557,0)" xlink:href="#G"/><use transform="matrix(0.010850694444444444,0,0,0.010850694444444444,106.6840277777778,0)" xlink:href="#L"/></g><path fill="#c92d39" d="M383-553l135-152 395-393h222L641-623 1163 0H950L524-504l-129 82V0H215v-1556h180c-3 337 9 689-16 1003h4" id="R"/><path fill="#c92d39" d="M739-1436c0 71-43 115-106 115-71 0-107-38-107-115 0-76 36-114 107-114s106 38 106 114zM541-954l-269-21v-123h451v955l352 20V0H197v-123l344-20v-811" id="S"/><path fill="#c92d39" d="M813 0c-67-308-137-613-199-926h-6C551-608 477-306 408 0H219L-4-1098h162c53 313 118 604 155 936h6c53-329 132-625 201-936h193c63 300 147 629 194 936h6c45-366 103-603 162-936h158L1008 0H813" id="T"/><g id="d"><use transform="matrix(0.010850694444444444,0,0,0.010850694444444444,0,0)" xlink:href="#G"/><use transform="matrix(0.010850694444444444,0,0,0.010850694444444444,13.335503472222221,0)" xlink:href="#R"/><use transform="matrix(0.010850694444444444,0,0,0.010850694444444444,26.671006944444443,0)" xlink:href="#S"/><use transform="matrix(0.010850694444444444,0,0,0.010850694444444444,40.006510416666664,0)" xlink:href="#T"/><use transform="matrix(0.010850694444444444,0,0,0.010850694444444444,53.342013888888886,0)" xlink:href="#S"/><use transform="matrix(0.010850694444444444,0,0,0.010850694444444444,66.67751736111111,0)" xlink:href="#G"/><use transform="matrix(0.010850694444444444,0,0,0.010850694444444444,80.01302083333334,0)" xlink:href="#L"/></g><path fill="#c92d39" d="M578-131c239 0 309-137 309-397v-570h182V0H922l-27-147h-10C815-36 704 20 551 20c-261 0-391-134-391-401v-717h182v707c0 173 79 260 236 260" id="U"/><path fill="#c92d39" d="M498 0L82-1098h188l240 652c57 154 90 262 100 325h6c67-256 244-708 340-977h189L729 0H498" id="V"/><g id="e"><use transform="matrix(0.010850694444444444,0,0,0.010850694444444444,0,0)" xlink:href="#G"/><use transform="matrix(0.010850694444444444,0,0,0.010850694444444444,13.335503472222221,0)" xlink:href="#P"/><use transform="matrix(0.010850694444444444,0,0,0.010850694444444444,26.671006944444443,0)" xlink:href="#U"/><use transform="matrix(0.010850694444444444,0,0,0.010850694444444444,40.006510416666664,0)" xlink:href="#H"/><use transform="matrix(0.010850694444444444,0,0,0.010850694444444444,53.342013888888886,0)" xlink:href="#V"/><use transform="matrix(0.010850694444444444,0,0,0.010850694444444444,66.67751736111111,0)" xlink:href="#H"/><use transform="matrix(0.010850694444444444,0,0,0.010850694444444444,80.01302083333334,0)" xlink:href="#G"/></g><g id="f"><use transform="matrix(0.010850694444444444,0,0,0.010850694444444444,0,0)" xlink:href="#G"/><use transform="matrix(0.010850694444444444,0,0,0.010850694444444444,13.335503472222221,0)" xlink:href="#H"/><use transform="matrix(0.010850694444444444,0,0,0.010850694444444444,26.671006944444443,0)" xlink:href="#I"/><use transform="matrix(0.010850694444444444,0,0,0.010850694444444444,40.006510416666664,0)" xlink:href="#I"/><use transform="matrix(0.010850694444444444,0,0,0.010850694444444444,53.342013888888886,0)" xlink:href="#J"/><use transform="matrix(0.010850694444444444,0,0,0.010850694444444444,66.67751736111111,0)" xlink:href="#K"/><use transform="matrix(0.010850694444444444,0,0,0.010850694444444444,80.01302083333334,0)" xlink:href="#G"/></g><g id="g"><use transform="matrix(0.010850694444444444,0,0,0.010850694444444444,0,0)" xlink:href="#G"/><use transform="matrix(0.010850694444444444,0,0,0.010850694444444444,13.335503472222221,0)" xlink:href="#M"/><use transform="matrix(0.010850694444444444,0,0,0.010850694444444444,26.671006944444443,0)" xlink:href="#N"/><use transform="matrix(0.010850694444444444,0,0,0.010850694444444444,40.006510416666664,0)" xlink:href="#H"/><use transform="matrix(0.010850694444444444,0,0,0.010850694444444444,53.342013888888886,0)" xlink:href="#O"/><use transform="matrix(0.010850694444444444,0,0,0.010850694444444444,66.67751736111111,0)" xlink:href="#P"/><use transform="matrix(0.010850694444444444,0,0,0.010850694444444444,80.01302083333334,0)" xlink:href="#K"/><use transform="matrix(0.010850694444444444,0,0,0.010850694444444444,93.34852430555557,0)" xlink:href="#G"/></g><g id="h"><use transform="matrix(0.010850694444444444,0,0,0.010850694444444444,0,0)" xlink:href="#G"/><use transform="matrix(0.010850694444444444,0,0,0.010850694444444444,13.335503472222221,0)" xlink:href="#Q"/><use transform="matrix(0.010850694444444444,0,0,0.010850694444444444,26.671006944444443,0)" xlink:href="#H"/><use transform="matrix(0.010850694444444444,0,0,0.010850694444444444,40.006510416666664,0)" xlink:href="#O"/><use transform="matrix(0.010850694444444444,0,0,0.010850694444444444,53.342013888888886,0)" xlink:href="#H"/><use transform="matrix(0.010850694444444444,0,0,0.010850694444444444,66.67751736111111,0)" xlink:href="#O"/><use transform="matrix(0.010850694444444444,0,0,0.010850694444444444,80.01302083333334,0)" xlink:href="#H"/><use transform="matrix(0.010850694444444444,0,0,0.010850694444444444,93.34852430555557,0)" xlink:href="#G"/></g><g id="i"><use transform="matrix(0.010850694444444444,0,0,0.010850694444444444,0,0)" xlink:href="#G"/><use transform="matrix(0.010850694444444444,0,0,0.010850694444444444,13.335503472222221,0)" xlink:href="#R"/><use transform="matrix(0.010850694444444444,0,0,0.010850694444444444,26.671006944444443,0)" xlink:href="#S"/><use transform="matrix(0.010850694444444444,0,0,0.010850694444444444,40.006510416666664,0)" xlink:href="#T"/><use transform="matrix(0.010850694444444444,0,0,0.010850694444444444,53.342013888888886,0)" xlink:href="#S"/><use transform="matrix(0.010850694444444444,0,0,0.010850694444444444,66.67751736111111,0)" xlink:href="#G"/></g><g id="j"><use transform="matrix(0.010850694444444444,0,0,0.010850694444444444,0,0)" xlink:href="#G"/><use transform="matrix(0.010850694444444444,0,0,0.010850694444444444,13.335503472222221,0)" xlink:href="#P"/><use transform="matrix(0.010850694444444444,0,0,0.010850694444444444,26.671006944444443,0)" xlink:href="#U"/><use transform="matrix(0.010850694444444444,0,0,0.010850694444444444,40.006510416666664,0)" xlink:href="#H"/><use transform="matrix(0.010850694444444444,0,0,0.010850694444444444,53.342013888888886,0)" xlink:href="#V"/><use transform="matrix(0.010850694444444444,0,0,0.010850694444444444,66.67751736111111,0)" xlink:href="#H"/><use transform="matrix(0.010850694444444444,0,0,0.010850694444444444,80.01302083333334,0)" xlink:href="#G"/></g><path fill="#19967d" d="M612 20c-153 0-268-65-347-194S147-489 147-733c0-501 155-752 465-752 155 0 271 64 350 193s119 316 119 559c0 502-156 753-469 753zm0-155c98 0 165-50 216-141 86-153 87-759 0-912-51-91-118-141-216-141-97 0-162 49-212 139-85 152-84 764 0 915 50 90 115 140 212 140" id="W"/><use transform="matrix(0.010850694444444444,0,0,0.010850694444444444,0,0)" xlink:href="#W" id="k"/><path fill="#19967d" d="M758 0H582c3-449-8-824 8-1274-61 68-188 168-268 234l-97-123 383-299h150V0" id="X"/><use transform="matrix(0.010850694444444444,0,0,0.010850694444444444,0,0)" xlink:href="#X" id="l"/><path fill="#19967d" d="M594-1483c248 0 420 149 418 391 0 79-21 160-59 244-73 161-414 504-572 674v8h688V0H158v-156c172-193 489-508 607-698 43-69 62-147 62-231 0-146-91-244-235-244-107 0-213 46-318 137l-102-119c128-115 269-172 422-172" id="Y"/><use transform="matrix(0.010850694444444444,0,0,0.010850694444444444,0,0)" xlink:href="#Y" id="m"/><path fill="#19967d" d="M1010-1120c0 200-132 322-316 350v6c241 31 361 147 361 348 0 294-219 436-537 436-161 0-290-26-387-79v-170c123 64 250 96 383 96 236 0 354-96 354-289 0-172-127-258-381-258H354v-151h133c195 4 334-97 336-277 1-140-106-221-250-221-119 0-233 40-344 121l-92-125c125-100 270-150 436-150 252 0 437 128 437 363" id="Z"/><use transform="matrix(0.010850694444444444,0,0,0.010850694444444444,0,0)" xlink:href="#Z" id="n"/><path fill="#19967d" d="M1126-328H913V0H737v-328H61v-159l664-983h188v976h213v166zM737-494c1-292-4-481 13-788h-9c-24 68-55 128-90 180L240-494h497" id="aa"/><use transform="matrix(0.010850694444444444,0,0,0.010850694444444444,0,0)" xlink:href="#aa" id="o"/><path fill="#0c7cba" d="M285-465v-168h659v168H285" id="ab"/><path fill="#0c7cba" d="M1055-469c0 318-203 489-527 489-149 0-268-26-356-79v-172c96 64 216 96 360 96 224 0 336-105 336-314 0-196-115-294-344-294-59 0-136 9-231 26l-90-57 55-688h690v166H416l-39 419c71-13 141-20 209-20 270-4 469 161 469 428" id="ac"/><g id="p"><use transform="matrix(0.010850694444444444,0,0,0.010850694444444444,0,0)" xlink:href="#ab"/><use transform="matrix(0.010850694444444444,0,0,0.010850694444444444,13.335503472222221,0)" xlink:href="#ac"/></g><path fill="#0c7cba" d="M1126-328H913V0H737v-328H61v-159l664-983h188v976h213v166zM737-494c1-292-4-481 13-788h-9c-24 68-55 128-90 180L240-494h497" id="ad"/><g id="q"><use transform="matrix(0.010850694444444444,0,0,0.010850694444444444,0,0)" xlink:href="#ab"/><use transform="matrix(0.010850694444444444,0,0,0.010850694444444444,13.335503472222221,0)" xlink:href="#ad"/></g><path fill="#0c7cba" d="M1010-1120c0 200-132 322-316 350v6c241 31 361 147 361 348 0 294-219 436-537 436-161 0-290-26-387-79v-170c123 64 250 96 383 96 236 0 354-96 354-289 0-172-127-258-381-258H354v-151h133c195 4 334-97 336-277 1-140-106-221-250-221-119 0-233 40-344 121l-92-125c125-100 270-150 436-150 252 0 437 128 437 363" id="ae"/><g id="r"><use transform="matrix(0.010850694444444444,0,0,0.010850694444444444,0,0)" xlink:href="#ab"/><use transform="matrix(0.010850694444444444,0,0,0.010850694444444444,13.335503472222221,0)" xlink:href="#ae"/></g><path fill="#0c7cba" d="M594-1483c248 0 420 149 418 391 0 79-21 160-59 244-73 161-414 504-572 674v8h688V0H158v-156c172-193 489-508 607-698 43-69 62-147 62-231 0-146-91-244-235-244-107 0-213 46-318 137l-102-119c128-115 269-172 422-172" id="af"/><g id="s"><use transform="matrix(0.010850694444444444,0,0,0.010850694444444444,0,0)" xlink:href="#ab"/><use transform="matrix(0.010850694444444444,0,0,0.010850694444444444,13.335503472222221,0)" xlink:href="#af"/></g><path fill="#0c7cba" d="M758 0H582c3-449-8-824 8-1274-61 68-188 168-268 234l-97-123 383-299h150V0" id="ag"/><g id="t"><use transform="matrix(0.010850694444444444,0,0,0.010850694444444444,0,0)" xlink:href="#ab"/><use transform="matrix(0.010850694444444444,0,0,0.010850694444444444,13.335503472222221,0)" xlink:href="#ag"/></g><path d="M142-631c-36-28-85-5-81 48 12 155 42 273 62 410 9 61 20 134 45 174 63 63 91-52 118-103 83-155 163-307 263-440 18-24 33-82-13-90-69 4-83 60-113 110-67 109-125 226-196 332-29-128-45-270-65-404-3-17-10-29-20-37" id="ah"/><path d="M414 18c44 0 51-25 54-67l20-294c15-129-122-120-228-97-56 12-101 41-148 64-16 8-27 55-6 61 51 14 87-22 132-33 39-9 72-27 121-28 19 0 38 3 37 23l-4 55C217-288 63-254 27-107 26-36 64 31 131 31c99 0 173-43 244-71-7 36-4 58 39 58zm-23-168c-50 42-119 78-192 101-76 24-118-61-60-101 61-42 156-67 248-79" id="ai"/><path d="M163-57c18-185 16-376 41-559 8-62-68-66-86-22-6 15-9 35-11 55L68-52c-2 37 13 69 47 67 41-2 44-34 48-72" id="aj"/><path d="M254-72c-30 8-82 15-89-17l23-289c33-89-91-94-97-3L70-84C51 77 266 15 354-26c-4 32 14 41 41 42 42 1 72-22 56-65l24-338c12-51 9-78-33-75-43 3-60 30-63 75l-18 260c-30 21-67 44-107 55" id="ak"/><path d="M219-412c99-54 263-26 248 106-6 57-62 81-112 104-62 28-146 48-218 66-5 48 10 94 65 90 94-7 136-72 207-98 34-13 67 0 57 43C435-41 354-7 282 18c-34 11-68 16-102 16C83 33 33-24 43-131c12-131 81-229 176-281zm101 138c24-14 78-40 42-74-39-37-110 1-139 24-31 25-59 61-72 105 67 5 123-28 169-55" id="al"/><path d="M376-215c43 0 31 49 10 75-39 47-104 89-187 89-48 0-70-41-115-55-47-14-78 39-47 75 50 58 171 80 264 44 95-36 189-96 200-210 7-67-35-108-100-108-91 0-157 59-233 59-38 0-19-38-4-54 46-49 136-72 234-65 42 3 82-10 73-53-25-53-127-37-191-22-109 25-216 75-229 191-7 61 35 94 99 94 85 0 146-60 226-60" id="am"/><g id="u"><use transform="matrix(0.02,0,0,0.02,0,0)" xlink:href="#ah"/><use transform="matrix(0.02,0,0,0.02,10,0)" xlink:href="#ai"/><use transform="matrix(0.02,0,0,0.02,20.56,0)" xlink:href="#aj"/><use transform="matrix(0.02,0,0,0.02,25.000000000000004,0)" xlink:href="#ak"/><use transform="matrix(0.02,0,0,0.02,35.2,0)" xlink:href="#al"/><use transform="matrix(0.02,0,0,0.02,44.58,0)" xlink:href="#am"/></g><path d="M480-433c87 3 153 44 143 142C607-123 486-34 346 11 211 55 46 26 46-120c0-40 65-72 88-32 25 42 40 94 112 88 119-10 209-60 257-143 23-39 41-132-32-128-105 6-179 59-280 59-78 0-132-37-122-121 15-131 114-208 221-254 92-40 227-25 274 37 24 31 8 80-30 82-66 3-63-54-134-52-103 3-170 55-212 118-24 36-30 92 21 92 91 0 162-63 271-59" id="an"/><path d="M355-451c110 0 162 80 153 193C498-125 413-39 312 7c-36 15-72 23-111 23C93 29 36-35 44-144c9-131 86-228 184-278 37-19 80-29 127-29zM207-56c121 0 193-88 206-202 6-56-14-100-70-100-129 0-190 98-204 214-6 51 17 88 68 88" id="ao"/><path d="M294-7c-52 29-182 61-175-39l22-313c-29 11-104 9-94-22-2-51 54-54 100-61 1-69 2-169 83-132 25 20 10 79 10 117 49-6 105-16 153-21 33-3 36 52 17 67-34 27-121 29-176 39L215-96c-3 27 40 15 48 4 21-29 77-60 113-24 8 8 12 20 11 35-23 31-56 53-93 74" id="ap"/><g id="v"><use transform="matrix(0.02,0,0,0.02,0,0)" xlink:href="#an"/><use transform="matrix(0.02,0,0,0.02,12.620000000000001,0)" xlink:href="#aj"/><use transform="matrix(0.02,0,0,0.02,17.060000000000002,0)" xlink:href="#ao"/><use transform="matrix(0.02,0,0,0.02,27.520000000000007,0)" xlink:href="#ap"/><use transform="matrix(0.02,0,0,0.02,36.24,0)" xlink:href="#am"/></g><path d="M521-578c23-14 20-71-6-75-112-16-227 16-324 21-56 3-100 19-78 81-13 171-32 323-49 487-6 57-8 81 45 77 45-3 52-35 57-77l22-213c90-14 180-31 271-41 34-4 49-60 25-79-25-20-86-9-120-4l-171 26 14-170 261-18c26-3 43-9 53-15" id="aq"/><path d="M124 12C75 22 65-15 68-58l23-329c-6-47 11-61 61-61 32 0 27 14 38 41 60-28 141-67 220-43 14 18 32 52 5 72-44 33-165 17-207 62-5 4-12 9-20 13L160-58c-7 43-5 63-36 70" id="ar"/><path d="M149-147c-5-95-11-196-19-285-3-35-68-31-79-6C35-320 71-157 71-32c0 49 64 71 91 30 44-67 87-163 126-243 20 91 48 182 78 260 10 14 51 16 66 1 20-21 30-60 44-88l138-286c25-44 41-72-11-92-60-23-66 45-87 86-38 73-62 161-102 228-21-87-47-190-68-276-12-24-53-18-66 4-46 79-88 178-131 261" id="as"/><path d="M388-422c20 0 30 1 42 13 8-77 2-166 23-231 12-35 104-26 87 24-19 183-20 382-41 563 7 55-16 77-72 68-22-3-19-26-24-50-23-2-30 15-55 25-49 19-106 33-188 32C85 5 25-63 46-159c34-151 150-260 342-263zM212-58c128-24 227-88 213-245 5-46-58-33-96-28-94 13-148 71-186 149-27 55 3 136 69 124" id="at"/><g id="w"><use transform="matrix(0.02,0,0,0.02,0,0)" xlink:href="#aq"/><use transform="matrix(0.02,0,0,0.02,9.700000000000001,0)" xlink:href="#ao"/><use transform="matrix(0.02,0,0,0.02,20.160000000000004,0)" xlink:href="#ar"/><use transform="matrix(0.02,0,0,0.02,27.720000000000006,0)" xlink:href="#as"/><use transform="matrix(0.02,0,0,0.02,39.720000000000006,0)" xlink:href="#ai"/><use transform="matrix(0.02,0,0,0.02,50.28000000000001,0)" xlink:href="#ar"/><use transform="matrix(0.02,0,0,0.02,57.84000000000001,0)" xlink:href="#at"/></g><path d="M181-653c-52 0-62 23-66 73L69-58C54-7 88 28 136 12c23-8 25-40 28-68 19-189 33-381 50-568-3-18-11-29-33-29" id="au"/><path d="M387-452c45 0 79 27 79 73 0 109-16 218-23 327 13 58-52 84-87 52-7-7-8-24-7-49l20-277c5-41-49-23-78-16-38 9-78 28-106 53L160-48c13 58-94 91-94 20 0-134 25-233 25-362 0-45 36-68 83-64 18 6 9 33 16 56 60-17 127-54 197-54" id="av"/><path d="M421-29c-2 51-80 49-99 11-36-42-66-94-105-134C176-104 133-42 88 0 71 16 5 22 10-14c9-68 109-143 146-198-39-61-82-110-128-168-38-48 45-94 78-50 37 49 74 100 111 146 43-49 86-98 128-148 17-33 110-19 84 25-39 66-105 122-152 182 54 58 105 125 144 196" id="aw"/><path d="M123-498c77 32 120-75 87-136-18-21-76-16-94 7-23 17-37 86-10 113 5 6 10 13 17 16zm35 466c14-117 12-250 30-368 9-59-74-59-92-24-11 21-9 48-11 80-6 111-17 224-17 334 0 32 72 34 82 4 3-8 6-16 8-26" id="ax"/><path d="M167 226c170 27 284-54 294-209 9-139 27-274 27-415 0-39-36-43-82-43-149 0-266 45-328 133-46 65-29 205-6 274 22 37 44 67 102 60 89-11 160-62 208-124-9 122-8 235-132 242-59 3-90-38-147-40-41-1-49 55-27 80 20 23 54 36 91 42zm-17-476c29-67 104-91 188-104 22-4 39-3 54 0 5 37 14 87-11 114-37 62-97 121-156 162-98 68-103-107-75-172" id="ay"/><g id="x"><use transform="matrix(0.02,0,0,0.02,0,0)" xlink:href="#au"/><use transform="matrix(0.02,0,0,0.02,4.44,0)" xlink:href="#av"/><use transform="matrix(0.02,0,0,0.02,14.48,0)" xlink:href="#at"/><use transform="matrix(0.02,0,0,0.02,25.64,0)" xlink:href="#al"/><use transform="matrix(0.02,0,0,0.02,35.02,0)" xlink:href="#aw"/><use transform="matrix(0.02,0,0,0.02,43.28,0)" xlink:href="#ax"/><use transform="matrix(0.02,0,0,0.02,47.72,0)" xlink:href="#av"/><use transform="matrix(0.02,0,0,0.02,57.76,0)" xlink:href="#ay"/></g><path d="M558-17c2-31-25-45-43-61L270-302c101-27 198-71 252-145 18-24 28-51 31-80 8-85-39-127-140-127-96 0-166 1-239 13-87 15-56 151-67 245L69-59c-2 44-3 74 37 74 44 0 55-32 58-70l18-209L446-12c27 38 116 40 117-20zM406-566c70 8 55 60 20 94-55 52-146 92-235 109l16-191c53-15 135-20 199-12" id="az"/><path d="M428-436c10 60-30 104-56 152C320-187 257-92 201 0c-17 27-53 28-67-8C87-124 60-265 30-393c-10-41 28-58 72-51 31 16 33 87 41 126 10 48 28 117 34 177 47-85 104-182 154-263 20-33 22-44 67-46 15 0 25 4 30 14" id="aA"/><g id="y"><use transform="matrix(0.02,0,0,0.02,0,0)" xlink:href="#az"/><use transform="matrix(0.02,0,0,0.02,11.24,0)" xlink:href="#al"/><use transform="matrix(0.02,0,0,0.02,20.62,0)" xlink:href="#aA"/><use transform="matrix(0.02,0,0,0.02,28.82,0)" xlink:href="#al"/><use transform="matrix(0.02,0,0,0.02,38.2,0)" xlink:href="#ar"/><use transform="matrix(0.02,0,0,0.02,45.76,0)" xlink:href="#am"/><use transform="matrix(0.02,0,0,0.02,56.160000000000004,0)" xlink:href="#al"/></g><path d="M149-612c-7-60-107-53-103 14 11 199 43 364 60 546-11 66 64 91 94 35 64-118 130-254 184-384 21 121 54 257 87 363 19 30 17 60 58 60 60 0 61-70 85-127 69-163 148-341 195-519 13-49-63-66-82-26-69 142-135 321-195 480-27-136-56-285-85-418 0-33-34-55-61-27-69 128-123 292-190 424-18-137-31-280-47-421" id="aB"/><path d="M315-328c46-26 68 3 62 60L355-49c-9 52 42 87 77 55 9-8 16-26 18-53l20-275c5-79-5-118-74-118-90 0-156 50-216 91 5-90 16-180 17-273 12-48-45-53-69-32-24 22-24 70-26 114L67-46C55 6 109 37 144 2c12-11 16-27 18-48l13-182c43-35 90-73 140-100" id="aC"/><g id="z"><use transform="matrix(0.02666666666666667,0,0,0.02666666666666667,0,0)" xlink:href="#aB"/><use transform="matrix(0.02666666666666667,0,0,0.02666666666666667,20.32,0)" xlink:href="#aC"/><use transform="matrix(0.02666666666666667,0,0,0.02666666666666667,33.92,0)" xlink:href="#ai"/><use transform="matrix(0.02666666666666667,0,0,0.02666666666666667,48,0)" xlink:href="#ap"/></g><path d="M436-34c34-42-12-84-70-64L165-71l45-515c4-44 3-69-37-70-52-1-53 27-58 72C98-400 66-214 66-30c0 31 9 60 42 56l277-37c23-5 42-12 51-23" id="aD"/><g id="A"><use transform="matrix(0.02666666666666667,0,0,0.02666666666666667,0,0)" xlink:href="#aD"/><use transform="matrix(0.02666666666666667,0,0,0.02666666666666667,11.840000000000002,0)" xlink:href="#ax"/><use transform="matrix(0.02666666666666667,0,0,0.02666666666666667,17.76,0)" xlink:href="#am"/><use transform="matrix(0.02666666666666667,0,0,0.02666666666666667,31.62666666666667,0)" xlink:href="#ap"/><use transform="matrix(0.02666666666666667,0,0,0.02666666666666667,43.25333333333334,0)" xlink:href="#am"/></g><path d="M86 8c44 22 86-11 77-63l13-144c47 62 97 122 144 185 15 20 40 48 74 32 28-13 27-58 3-79L255-251c56-44 111-95 171-135 7-6 11-14 12-25l1 1c-3-27-18-64-49-49-78 38-137 102-204 153 6-107 8-216 16-322 4-51-82-44-93-10C90-447 68-234 68-32c0 17 7 32 18 40" id="aE"/><g id="B"><use transform="matrix(0.02666666666666667,0,0,0.02666666666666667,0,0)" xlink:href="#aD"/><use transform="matrix(0.02666666666666667,0,0,0.02666666666666667,11.840000000000002,0)" xlink:href="#ao"/><use transform="matrix(0.02666666666666667,0,0,0.02666666666666667,25.78666666666667,0)" xlink:href="#ao"/><use transform="matrix(0.02666666666666667,0,0,0.02666666666666667,39.733333333333334,0)" xlink:href="#aE"/></g><g id="C"><use transform="matrix(0.02666666666666667,0,0,0.02666666666666667,0,0)" xlink:href="#aD"/><use transform="matrix(0.02666666666666667,0,0,0.02666666666666667,11.840000000000002,0)" xlink:href="#ax"/><use transform="matrix(0.02666666666666667,0,0,0.02666666666666667,17.76,0)" xlink:href="#aE"/><use transform="matrix(0.02666666666666667,0,0,0.02666666666666667,28.96,0)" xlink:href="#al"/></g><path d="M155-49l21-244 312-10-17 219c-22 65 88 108 97 34 25-194 26-402 50-598 7-54-68-52-90-24-9 11-13 26-14 43l-17 236-315 13c6-73 8-146 18-218 8-62-82-75-91-18C82-444 74-242 61-58c-4 52 1 65 45 73 32 6 46-25 49-64" id="aF"/><g id="D"><use transform="matrix(0.02666666666666667,0,0,0.02666666666666667,0,0)" xlink:href="#aF"/><use transform="matrix(0.02666666666666667,0,0,0.02666666666666667,16.400000000000002,0)" xlink:href="#ao"/><use transform="matrix(0.02666666666666667,0,0,0.02666666666666667,30.346666666666668,0)" xlink:href="#as"/></g><path d="M598-40c-43-190-146-367-185-558-9-42-34-91-77-60-12 9-22 27-35 52C209-423 112-244 20-60 4-26 10 18 56 15c39-4 50-49 68-84l79-159c67-5 153-12 223-13 39 81 59 164 102 242 21 37 79 0 70-41zM400-328l-152 9 97-201c16 61 35 135 55 192" id="aG"/><path d="M187 30C86 30 37-38 44-140c9-132 83-229 176-282 85-48 240-30 261 49 11 42-48 56-82 35-28-29-107-33-145-6-64 46-121 125-114 234 5 80 124 50 168 20 34-24 59-51 76-86 11-23 89-29 88 6C437-52 341 30 187 30" id="aH"/><path d="M258 129c80-168 142-347 216-521 22-51-50-63-78-40-7 6-13 18-18 31L267-114c-48-103-96-207-145-310-19-25-73-5-80 19-4 14-4 31 6 53L216-1c-19 41-28 93-61 121-38 32-172-44-146 85 37 23 129 21 173 2 35-15 60-44 76-78" id="aI"/><g id="E"><use transform="matrix(0.02666666666666667,0,0,0.02666666666666667,0,0)" xlink:href="#aG"/><use transform="matrix(0.02666666666666667,0,0,0.02666666666666667,15.920000000000002,0)" xlink:href="#aH"/><use transform="matrix(0.02666666666666667,0,0,0.02666666666666667,28.213333333333342,0)" xlink:href="#ak"/><use transform="matrix(0.02666666666666667,0,0,0.02666666666666667,41.81333333333334,0)" xlink:href="#ap"/><use transform="matrix(0.02666666666666667,0,0,0.02666666666666667,53.440000000000005,0)" xlink:href="#ai"/><use transform="matrix(0.02666666666666667,0,0,0.02666666666666667,67.52000000000001,0)" xlink:href="#aj"/><use transform="matrix(0.02666666666666667,0,0,0.02666666666666667,73.44000000000001,0)" xlink:href="#aj"/><use transform="matrix(0.02666666666666667,0,0,0.02666666666666667,79.36000000000001,0)" xlink:href="#aI"/></g><g id="F"><use transform="matrix(0.02666666666666667,0,0,0.02666666666666667,0,0)" xlink:href="#aG"/><use transform="matrix(0.02666666666666667,0,0,0.02666666666666667,15.920000000000002,0)" xlink:href="#ar"/><use transform="matrix(0.02666666666666667,0,0,0.02666666666666667,26,0)" xlink:href="#al"/></g></defs></g></svg>